<svg height="512pt" viewBox="0 0 512 512" width="512pt" xmlns="http://www.w3.org/2000/svg"><path d="m255.972656 258.644531s87.882813-56.804687 87.882813-110.054687c0-29.1875-22.789063-52.847656-50.902344-52.847656-14.566406 0-27.699219 6.351562-36.980469 16.53125-9.277344-10.179688-22.410156-16.53125-36.976562-16.53125-28.113282 0-50.902344 23.660156-50.902344 52.847656 0 53.25 87.878906 110.054687 87.878906 110.054687zm0 0" fill="#f6838d"/><path d="m429.890625 502 56.804687-97.980469c9.988282-17.179687 15.253907-36.699219 15.253907-56.570312v-151.15625c0-13.128907-10.644531-23.773438-23.769531-23.773438-13.128907 0-23.773438 10.644531-23.773438 23.773438v84.964843c0 28.273438-10.035156 55.628907-28.316406 77.199219l-1.882813 2.21875-43.253906 51.464844 41.667969-49.4375c11.652344-13.824219 8.101562-34.804687-7.453125-44.027344-11.421875-6.773437-25.972657-5.003906-35.441407 4.308594l-39.332031 38.6875c-22.101562 21.738281-34.550781 51.441406-34.550781 82.441406v57.886719zm0 0" fill="#ffddcf"/><path d="m82.058594 502-56.804688-97.980469c-9.992187-17.179687-15.253906-36.699219-15.253906-56.570312v-151.15625c0-13.128907 10.640625-23.773438 23.769531-23.773438 13.128907 0 23.769531 10.644531 23.769531 23.773438v84.964843c0 28.273438 10.035157 55.628907 28.320313 77.199219l1.882813 2.21875 43.25 51.464844-41.664063-49.4375c-11.652344-13.824219-8.101563-34.804687 7.453125-44.027344 11.421875-6.773437 25.972656-5.003906 35.4375 4.308594l39.335938 38.6875c22.101562 21.738281 34.546874 51.441406 34.546874 82.441406v57.886719zm0 0" fill="#ffddcf"/><path d="m250.546875 267.039062c1.652344 1.066407 3.539063 1.601563 5.425781 1.601563 1.890625 0 3.777344-.53125 5.429688-1.601563 3.773437-2.4375 92.453125-60.425781 92.453125-118.449218 0-34.652344-27.320313-62.847656-60.902344-62.847656-13.394531 0-26.429687 4.625-36.980469 12.921874-10.546875-8.296874-23.582031-12.921874-36.976562-12.921874-33.582032 0-60.902344 28.191406-60.902344 62.847656 0 58.023437 88.675781 116.011718 92.453125 118.449218zm-31.550781-161.296874c11.28125 0 21.789062 4.710937 29.585937 13.269531 1.894531 2.078125 4.578125 3.261719 7.390625 3.261719s5.496094-1.183594 7.390625-3.261719c7.796875-8.558594 18.308594-13.269531 29.589844-13.269531 22.554687 0 40.902344 19.222656 40.902344 42.847656 0 36.378906-51.941407 79.980468-77.882813 98.007812-25.941406-18.023437-77.882812-61.628906-77.882812-98.007812.003906-23.625 18.351562-42.847656 40.90625-42.847656zm0 0"/><path d="m255.972656 45.296875c5.523438 0 10-4.476563 10-10v-25.296875c0-5.523438-4.476562-10-10-10-5.523437 0-10 4.476562-10 10v25.296875c0 5.523437 4.476563 10 10 10zm0 0"/><path d="m255.972656 285.835938c-5.523437 0-10 4.476562-10 9.996093v25.339844c0 5.519531 4.476563 10 10 10 5.523438 0 10-4.480469 10-10v-25.339844c0-5.519531-4.476562-9.996093-10-9.996093zm0 0"/><path d="m376.261719 165.585938c0 5.519531 4.476562 10 10 10h25.296875c5.523437 0 10-4.480469 10-10 0-5.523438-4.476563-10-10-10h-25.296875c-5.523438 0-10 4.476562-10 10zm0 0"/><path d="m100.386719 175.585938h25.339843c5.519532 0 9.996094-4.480469 9.996094-10 0-5.523438-4.476562-10-9.996094-10h-25.339843c-5.523438 0-10 4.476562-10 10 0 5.519531 4.476562 10 10 10zm0 0"/><path d="m355.171875 250.640625c-3.90625-3.902344-10.234375-3.902344-14.140625 0-3.90625 3.90625-3.90625 10.238281 0 14.144531l22.304688 22.304688c1.953124 1.953125 4.511718 2.929687 7.070312 2.929687 2.5625 0 5.121094-.976562 7.070312-2.929687 3.90625-3.902344 3.90625-10.234375 0-14.140625zm0 0"/><path d="m156.804688 80.554688c1.953124 1.953124 4.511718 2.929687 7.070312 2.929687s5.117188-.976563 7.070312-2.929687c3.902344-3.902344 3.902344-10.234376 0-14.140626l-22.019531-22.019531c-3.902343-3.902343-10.234375-3.902343-14.140625 0-3.902344 3.90625-3.90625 10.238281 0 14.144531zm0 0"/><path d="m156.773438 250.640625-22.621094 22.625c-3.90625 3.90625-3.90625 10.234375 0 14.140625 1.953125 1.953125 4.511718 2.929688 7.070312 2.929688s5.117188-.976563 7.070313-2.929688l22.621093-22.621094c3.90625-3.90625 3.90625-10.238281 0-14.144531-3.902343-3.902344-10.234374-3.902344-14.140624 0zm0 0"/><path d="m348.074219 83.484375c2.558593 0 5.117187-.976563 7.070312-2.929687l22.019531-22.015626c3.902344-3.90625 3.902344-10.238281 0-14.144531-3.90625-3.902343-10.238281-3.902343-14.144531 0l-22.015625 22.019531c-3.90625 3.90625-3.90625 10.234376 0 14.140626 1.949219 1.953124 4.511719 2.929687 7.070313 2.929687zm0 0"/><path d="m478.179688 162.523438c-18.621094 0-33.769532 15.148437-33.769532 33.765624v84.96875c0 15.367188-3.273437 30.453126-9.417968 44.320313-3.339844-6.359375-8.394532-11.75-14.722657-15.5-15.3125-9.078125-34.863281-6.699219-47.554687 5.78125l-39.332032 38.683594c-23.855468 23.464843-37.539062 56.109375-37.539062 89.570312v57.886719c0 5.519531 4.476562 9.996094 10 9.996094s10-4.476563 10-9.996094v-57.886719c0-28.132812 11.503906-55.582031 31.5625-75.3125l39.332031-38.6875c6.226563-6.121093 15.820313-7.289062 23.332031-2.835937 4.878907 2.894531 8.21875 7.761718 9.167969 13.355468.945313 5.59375-.609375 11.289063-4.265625 15.625l-41.664062 49.4375c-3.558594 4.222657-3.019532 10.527344 1.203125 14.089844 4.21875 3.558594 10.53125 3.019532 14.089843-1.203125l45.117188-53.660156c19.789062-23.347656 30.6875-53.058594 30.6875-83.664063v-84.96875c0-7.59375 6.179688-13.769531 13.773438-13.769531s13.769531 6.179688 13.769531 13.769531v28.230469c0 5.523438 4.476562 10 10 10 5.523437 0 10-4.476562 10-10v-28.230469c0-18.617187-15.148438-33.765624-33.769531-33.765624zm0 0"/><path d="m501.949219 304.511719c-5.523438 0-10 4.476562-10 10v32.9375c0 18.085937-4.804688 35.90625-13.90625 51.554687l-56.804688 97.980469c-2.769531 4.777344-1.140625 10.894531 3.636719 13.664063 1.578125.914062 3.304688 1.351562 5.003906 1.351562 3.449219 0 6.804688-1.785156 8.660156-4.984375l56.800782-97.96875c10.863281-18.6875 16.609375-39.984375 16.609375-61.597656v-32.9375c0-5.523438-4.476563-10-10-10zm0 0"/><path d="m139.230469 315.855469c-12.6875-12.476563-32.242188-14.855469-47.550781-5.777344-6.332032 3.75-11.382813 9.140625-14.722657 15.5-6.144531-13.863281-9.417969-28.953125-9.417969-44.320313v-84.96875c0-18.617187-15.148437-33.765624-33.769531-33.765624-18.621093 0-33.769531 15.148437-33.769531 33.765624v151.160157c0 21.613281 5.742188 42.910156 16.601562 61.585937l56.804688 97.976563c1.855469 3.199219 5.210938 4.988281 8.660156 4.988281 1.703125 0 3.429688-.4375 5.007813-1.351562 4.777343-2.769532 6.40625-8.886719 3.632812-13.664063l-56.808593-97.992187c-9.09375-15.636719-13.898438-33.460938-13.898438-51.542969v-151.15625c0-7.59375 6.175781-13.773438 13.769531-13.773438s13.773438 6.179688 13.773438 13.773438v84.964843c0 30.605469 10.898437 60.316407 30.6875 83.664063l45.117187 53.660156c3.558594 4.226563 9.867188 4.761719 14.089844 1.203125s4.761719-9.867187 1.203125-14.089844l-41.664063-49.433593c-3.65625-4.339844-5.210937-10.035157-4.265624-15.628907.949218-5.59375 4.289062-10.460937 9.167968-13.351562 7.511719-4.457031 17.105469-3.289062 23.332032 2.835938l39.332031 38.6875c20.058593 19.726562 31.5625 47.175781 31.5625 75.308593v57.886719c0 5.519531 4.476562 10 9.996093 10 5.523438 0 10-4.480469 10-10v-57.886719c0-33.460937-13.679687-66.105469-37.535156-89.570312zm0 0"/><path d="m501.949219 259.515625c-5.523438 0-10 4.480469-10 10v.332031c0 5.523438 4.476562 10 10 10 5.523437 0 10-4.476562 10-10v-.332031c0-5.519531-4.476563-10-10-10zm0 0"/></svg>