<svg id="fire" enable-background="new 0 0 300 300" height="512" viewBox="0 0 300 300" width="512" xmlns="http://www.w3.org/2000/svg"><circle cx="120" cy="142.353" fill="#e5efef" r="86"/><path d="m156.321 152.353c-1.276 0-2.541-.255-3.706-.774-8.183-3.642-39.721-20.293-19.221-53.093 23.42-37.472 28.104-46.84 28.104-46.84s30.446 16.394 23.42 44.498c0 0 4.684 2.342 9.368-9.368 0 0 27.399 43.381-19.252 64.767-1.19.546-2.503.81-3.812.81z" fill="#fc8c29"/><path d="m171.223 156.353h-14.901c-1.869 0-3.663-.376-5.332-1.119-6.551-2.916-22.297-11.377-27.055-26.941-3.027-9.9-.985-20.642 6.067-31.927 22.912-36.659 27.873-46.419 27.921-46.513.485-.965 1.341-1.695 2.371-2.02 1.032-.325 2.15-.22 3.101.291.293.158 25.81 14.213 26.557 38.633.203-.451.41-.939.621-1.466.559-1.396 1.852-2.361 3.349-2.498 1.498-.136 2.944.577 3.747 1.848.537.85 13.074 21.051 6.927 41.742-3.654 12.298-13.039 21.987-27.894 28.796-1.675.768-3.569 1.174-5.479 1.174zm-8.252-99.047c-3.136 5.583-10.439 18.107-26.186 43.3-5.771 9.232-7.52 17.761-5.2 25.348 3.902 12.765 18.328 20.044 22.656 21.971.638.284 1.338.428 2.08.428h14.901c.768 0 1.509-.154 2.145-.445 12.644-5.796 20.564-13.788 23.544-23.754 3.232-10.812.059-21.906-2.766-28.688-1.618 2.156-3.394 3.59-5.351 4.334-2.906 1.105-5.072.221-5.665-.076-1.678-.838-2.547-2.729-2.093-4.548 4.86-19.436-10.89-32.887-18.065-37.87z" fill="#4c241d"/><path d="m180.234 119.564c-14.052-7.026-14.052-25.762-14.052-25.762-9.368 9.368-7.026 30.446-7.026 30.446-4.684 0-9.368-9.368-9.368-9.368-7.602 13.937-4.239 25.126.451 32.464 1.94 3.036 5.271 4.876 8.872 4.965 3.198.079 7.288.15 10.59.17 3.725.022 7.223-1.846 9.208-4.999 6.588-10.459 10.705-23.226 1.325-27.916z" fill="#ffce56"/><path d="m169.768 156.479c-.03 0-.061 0-.091 0-3.002-.018-7.089-.083-10.665-.17-4.956-.123-9.496-2.668-12.144-6.81-5.051-7.904-9.253-20.657-.593-36.534.713-1.307 2.064-2.116 3.583-2.084 1.489.027 2.841.878 3.507 2.211.459.913 1.004 1.836 1.579 2.704.29-7.629 1.954-18.367 8.408-24.821 1.143-1.145 2.866-1.488 4.358-.867 1.495.619 2.47 2.078 2.47 3.695.001.153.22 16.374 11.842 22.185 3.612 1.806 6.074 4.738 7.119 8.478 2.404 8.601-3.258 19.448-6.848 25.147-2.709 4.304-7.387 6.866-12.525 6.866zm-19.243-33.207c-2.365 7.651-1.337 15 3.085 21.918 1.212 1.897 3.306 3.064 5.6 3.12 3.529.087 7.559.151 10.515.168h.04c2.339 0 4.543-1.197 5.761-3.13 4.835-7.677 7.045-14.68 5.913-18.731-.439-1.57-1.39-2.675-2.993-3.476-7.993-3.996-12.059-11.057-14.126-17.253-1.733 6.752-1.566 14.445-1.188 17.922.124 1.13-.239 2.261-.998 3.106-.759.846-1.841 1.332-2.978 1.332-3.409.001-6.371-2.335-8.631-4.976z" fill="#4c241d"/><path d="m218 180.353 20.917-20.917c2.933-2.933 3.316-7.557.905-10.932-3.048-4.267-9.197-4.776-12.905-1.068l-30.86 30.86c-6.44 6.44-10.058 15.174-10.058 24.281v45.776h36v-13.529c0-6.79 2.245-13.389 6.384-18.77l23.486-30.532c6.568-8.539 10.13-19.01 10.13-29.783v-57.387c0-5.523-4.477-10-10-10-5.523 0-10 4.477-10 10l-2.178 50.151" fill="#ffe8dc"/><path d="m222 252.353h-36c-2.209 0-4-1.791-4-4v-45.776c0-10.24 3.988-19.868 11.229-27.109l30.86-30.86c2.599-2.599 6.185-3.919 9.856-3.614.743.062 1.474.188 2.182.376l1.873-43.112c.052-7.676 6.312-13.906 14-13.906 7.72 0 14 6.28 14 14v57.386c0 11.591-3.893 23.034-10.959 32.222l-23.485 30.532c-3.583 4.657-5.556 10.457-5.556 16.332v13.529c0 2.208-1.791 4-4 4zm-32-8h28v-9.529c0-7.629 2.562-15.162 7.214-21.209l23.485-30.532c5.998-7.797 9.301-17.508 9.301-27.344v-57.386c0-3.309-2.691-6-6-6s-6 2.691-6 6c0 .058-.001.116-.004.173l-2.124 48.916c2.649 4.819 1.852 10.845-2.126 14.822l-20.918 20.917c-1.561 1.562-4.094 1.562-5.656 0s-1.562-4.095 0-5.657l20.918-20.917c1.55-1.55 1.756-3.967.493-5.756-.011-.015-.022-.03-.033-.046-.779-1.077-1.937-1.729-3.263-1.839-1.344-.111-2.594.351-3.54 1.298l-30.861 30.86c-5.729 5.73-8.886 13.349-8.886 21.453z" fill="#4c241d"/><path d="m110 180.353-20.917-20.917c-2.933-2.933-3.316-7.557-.905-10.932 3.048-4.267 9.197-4.776 12.905-1.068l30.86 30.86c6.44 6.44 10.058 15.174 10.058 24.281v45.776h-36v-13.529c0-6.79-2.245-13.389-6.384-18.77l-23.487-30.533c-6.568-8.539-10.13-19.01-10.13-29.783v-57.386c0-5.523 4.477-10 10-10 5.523 0 10 4.477 10 10l2.178 50.151" fill="#ffe8dc"/><path d="m142 252.353h-36c-2.209 0-4-1.791-4-4v-13.529c0-5.875-1.973-11.676-5.555-16.332l-23.486-30.532c-7.067-9.188-10.959-20.631-10.959-32.222v-57.385c0-7.72 6.28-14 14-14 7.688 0 13.948 6.229 14 13.906l1.872 43.11c.708-.188 1.438-.314 2.18-.376 3.666-.304 7.259 1.014 9.859 3.614l30.859 30.86c7.241 7.241 11.229 16.869 11.229 27.11v45.776c.001 2.208-1.79 4-3.999 4zm-32-8h28v-41.776c0-8.104-3.156-15.723-8.886-21.453l-30.859-30.86c-.948-.948-2.208-1.408-3.542-1.298-1.325.11-2.482.762-3.261 1.838-.012.016-.022.032-.034.047-1.263 1.79-1.057 4.206.493 5.756l20.917 20.917c1.562 1.562 1.562 4.095 0 5.657-1.561 1.562-4.094 1.562-5.656 0l-20.917-20.917c-3.978-3.978-4.775-10.003-2.126-14.822l-2.125-48.915c-.003-.059-.004-.116-.004-.174 0-3.309-2.691-6-6-6s-6 2.691-6 6v57.386c0 9.836 3.303 19.547 9.301 27.344l23.486 30.532c4.651 6.047 7.213 13.579 7.213 21.209z" fill="#4c241d"/></svg>