<?xml version="1.0" encoding="iso-8859-1"?>
<!-- Generator: Adobe Illustrator 19.0.0, SVG Export Plug-In . SVG Version: 6.00 Build 0)  -->
<svg version="1.1" id="Capa_1" xmlns="http://www.w3.org/2000/svg" xmlns:xlink="http://www.w3.org/1999/xlink" x="0px" y="0px"
	 viewBox="0 0 512 512" style="enable-background:new 0 0 512 512;" xml:space="preserve">
<path style="fill:#B7E4F8;" d="M264.158,155.646c-70.032,0-127.008,56.975-127.008,127.008c0,46.64,25.488,89.442,66.517,111.702
	l2.266,1.229l93.437,14.771l36.764-23.064l0.61-0.404c34.077-23.769,54.421-62.736,54.421-104.233
	C391.165,212.621,334.19,155.646,264.158,155.646z"/>
<path style="fill:#6FC8F1;" d="M264.158,155.646L264.158,155.646v249.143l35.212,5.566l36.764-23.064l0.61-0.404
	c34.077-23.769,54.421-62.736,54.421-104.233C391.165,212.621,334.19,155.646,264.158,155.646z"/>
<rect x="249.158" y="101.166" style="fill:#265D77;" width="30.002" height="101.476"/>
<g>
	
		<rect x="179.235" y="78.475" transform="matrix(-0.7071 0.7071 -0.7071 -0.7071 403.714 24.7278)" style="fill:#FF4F19;" width="35.002" height="35.002"/>
	
		<rect x="131.648" y="124.555" transform="matrix(-0.7071 0.7071 -0.7071 -0.7071 355.062 137.0397)" style="fill:#FF4F19;" width="35.002" height="35.002"/>
	
		<rect x="115.228" y="60.557" transform="matrix(-0.7071 0.7071 -0.7071 -0.7071 281.7782 39.3995)" style="fill:#FF4F19;" width="35.002" height="35.002"/>
</g>
<path style="fill:#FFCE2D;" d="M394.32,5.154c-26.685-10.077-50.272-3.289-71.084,2.7c-18.268,5.257-35.523,10.223-55.496,5.311
	l-18.583-4.569v121.833l9.702,3.663c10.926,4.126,21.567,5.666,31.861,5.665c16.32-0.001,31.76-3.874,46.028-7.454
	c17.304-4.342,33.649-8.444,50.024-5.959l17.25,2.615V8.817L394.32,5.154z"/>
<path style="fill:#FFAB2D;" d="M394.32,5.154c-24.601-9.29-46.569-4.245-66.158,1.292v127.982c2.905-0.698,5.769-1.415,8.586-2.121
	c17.304-4.342,33.649-8.444,50.024-5.959l17.25,2.615V8.817L394.32,5.154z"/>
<path style="fill:#AC825A;" d="M307.827,266.652v45.124h-87.339v-45.124h-30.002v117.34V512h30.002v-34.457h87.339V512h30.002
	V383.993v-117.34H307.827z M307.827,341.778v37.881h-87.339v-37.881H307.827z M220.488,447.541v-37.88h87.339v37.88H220.488z"/>
<polygon style="fill:#56412D;" points="307.827,266.652 307.827,311.776 264.158,311.776 264.158,341.778 307.827,341.778 
	307.827,379.659 264.158,379.659 264.158,409.661 307.827,409.661 307.827,447.541 264.158,447.541 264.158,477.543 
	307.827,477.543 307.827,512 337.829,512 337.829,383.993 337.829,266.652 "/>
<g>
</g>
<g>
</g>
<g>
</g>
<g>
</g>
<g>
</g>
<g>
</g>
<g>
</g>
<g>
</g>
<g>
</g>
<g>
</g>
<g>
</g>
<g>
</g>
<g>
</g>
<g>
</g>
<g>
</g>
</svg>
