<svg id="trophy" enable-background="new 0 0 300 300" height="512" viewBox="0 0 300 300" width="512" xmlns="http://www.w3.org/2000/svg"><g><g><circle cx="140" cy="120" fill="#e5efef" r="86"/></g><g><path d="m100 230c23.196 0 42-19.207 42-42.9v-17.1h20v14.802c0 24.962 19.811 45.198 44.25 45.198z" fill="#ffce56"/><path d="m206.25 234h-106.25c-2.209 0-4-1.791-4-4s1.791-4 4-4c20.953 0 38-17.45 38-38.9v-17.1c0-2.209 1.791-4 4-4h20c2.209 0 4 1.791 4 4v14.801c0 22.718 18.056 41.199 40.25 41.199 2.209 0 4 1.791 4 4s-1.791 4-4 4zm-80.579-8h54.231c-13.177-8.793-21.902-23.977-21.902-41.199v-10.801h-12v13.1c0 16.176-8.075 30.466-20.329 38.9z" fill="#4c241d"/></g><g><path d="m98 230h108v16h-108z" fill="#edebdc"/><path d="m206 250h-108c-2.209 0-4-1.791-4-4v-16c0-2.209 1.791-4 4-4h108c2.209 0 4 1.791 4 4v16c0 2.209-1.791 4-4 4zm-104-8h100v-8h-100z" fill="#4c241d"/></g><g><path d="m250 262h-196c0-8.837 7.163-16 16-16h164c8.836 0 16 7.163 16 16z" fill="#9dc1e4"/><path d="m250 266h-196c-2.209 0-4-1.791-4-4 0-11.028 8.972-20 20-20h164c11.028 0 20 8.972 20 20 0 2.209-1.791 4-4 4zm-191.314-8h186.629c-1.651-4.656-6.1-8-11.314-8h-164.001c-5.215 0-9.664 3.344-11.314 8z" fill="#4c241d"/></g><path d="m200.305 126.491c-2.209 0-4-1.791-4-4s1.791-4 4-4c25.196 0 45.695-20.331 45.695-45.321v-3.17h-50.979c-2.209 0-4-1.791-4-4s1.791-4 4-4h54.979c2.209 0 4 1.791 4 4v7.17c0 29.402-24.087 53.321-53.695 53.321z" fill="#4c241d"/><path d="m99.694 126.491c-29.607 0-53.694-23.919-53.694-53.321v-7.17c0-2.209 1.791-4 4-4h54.979c2.209 0 4 1.791 4 4s-1.791 4-4 4h-50.979v3.17c0 24.99 20.499 45.321 45.694 45.321 2.209 0 4 1.791 4 4s-1.791 4-4 4z" fill="#4c241d"/><g><path d="m99.903 66c-1.202 7.003-1.903 14.328-1.903 21.924 0 46.704 24.233 84.566 54.125 84.566 29.893 0 54.125-37.862 54.125-84.566 0-7.596-.701-14.921-1.903-21.925h-104.444z" fill="#ffce56"/><path d="m152.125 176.491c-15.869 0-30.657-9.452-41.641-26.613-10.63-16.608-16.484-38.61-16.484-61.953 0-7.418.66-15.022 1.96-22.602.33-1.92 1.995-3.323 3.943-3.323h104.444c1.948 0 3.613 1.403 3.942 3.323 1.301 7.579 1.96 15.184 1.96 22.602 0 23.343-5.854 45.346-16.484 61.954-10.983 17.161-25.771 26.612-41.64 26.612zm-48.807-106.491c-.875 6.026-1.318 12.04-1.318 17.925 0 44.424 22.486 80.566 50.125 80.566s50.125-36.142 50.125-80.566c0-5.884-.443-11.899-1.318-17.925z" fill="#4c241d"/></g><g><circle cx="152" cy="116" fill="#edebdc" r="30"/><path d="m152 150c-18.748 0-34-15.252-34-34s15.252-34 34-34 34 15.252 34 34-15.252 34-34 34zm0-60c-14.336 0-26 11.664-26 26s11.664 26 26 26 26-11.664 26-26-11.664-26-26-26z" fill="#4c241d"/></g><g><path d="m146 114 8-8v20" fill="#edebdc"/><path d="m154 130c-2.209 0-4-1.791-4-4v-10.343l-1.171 1.172c-1.562 1.562-4.095 1.562-5.657 0s-1.562-4.095 0-5.657l8-8c1.145-1.144 2.863-1.486 4.359-.867 1.495.619 2.469 2.078 2.469 3.695v20c0 2.209-1.791 4-4 4z" fill="#4c241d"/></g></g></svg>