<?xml version="1.0" encoding="iso-8859-1"?>
<!-- Generator: Adobe Illustrator 19.0.0, SVG Export Plug-In . SVG Version: 6.00 Build 0)  -->
<svg version="1.1" id="Capa_1" xmlns="http://www.w3.org/2000/svg" xmlns:xlink="http://www.w3.org/1999/xlink" x="0px" y="0px"
	 viewBox="0 0 480 480" style="enable-background:new 0 0 480 480;" xml:space="preserve">
<polygon style="fill:#E15D2D;" points="0,200 0,288 144,144 264,248 440,80 440,112 472,112 472,8 368,8 368,40 400,40 288,152 
	168,40 "/>
<path style="fill:#FFBE00;" d="M312,240c0,17.04-6,32.8-16,45.12c-13.12,16.4-33.36,26.88-56,26.88s-42.88-10.48-56-26.88
	c-10-12.32-16-28.08-16-45.12s6-32.8,16-45.12c13.12-16.4,33.36-26.88,56-26.88c24.16,0,45.52,11.92,58.56,30.16
	C307.04,209.92,312,224.4,312,240z"/>
<g>
	<path style="fill:#5DD3D2;" d="M240,8L240,8c-17.673,17.673-17.673,46.327,0,64l0,0l0,0C257.673,54.327,257.673,25.673,240,8L240,8
		z"/>
	<path style="fill:#5DD3D2;" d="M309.255,66.745L309.255,66.745C284.261,66.745,264,87.006,264,112v0h0
		C288.994,112,309.255,91.739,309.255,66.745L309.255,66.745z"/>
	<path style="fill:#5DD3D2;" d="M168,104L168,104c24.994,0,45.255,20.261,45.255,45.255v0h0C188.261,149.255,168,128.994,168,104
		L168,104z"/>
</g>
<rect x="232" y="64" style="fill:#2E5166;" width="16" height="104"/>
<path style="fill:#E0A700;" d="M272,216v-16c0-4.422-3.582-8-8-8h-16v-8h-16v8h-16c-4.418,0-8,3.578-8,8v40c0,4.422,3.582,8,8,8h40
	v24h-32v-8h-16v16c0,4.422,3.582,8,8,8h16v8h16v-8h16c4.418,0,8-3.578,8-8v-40c0-4.422-3.582-8-8-8h-40v-24h32v8H272z"/>
<path style="fill:#E3DCD9;" d="M352,160v160l-56-32v-2.88c10-12.32,16-28.08,16-45.12c0-15.6-4.96-30.08-13.44-41.84L352,160z"/>
<rect x="352" y="160" style="fill:#E15D2D;" width="32" height="160"/>
<path style="fill:#E3DCD9;" d="M184,194.88c-10,12.32-16,28.08-16,45.12s6,32.8,16,45.12V288h-48v-96h48V194.88z"/>
<polygon style="fill:#E15D2D;" points="136,208 136,272 112,256 112,224 "/>
<polygon style="fill:#E3DCD9;" points="384,208 416,224 416,256 384,272 "/>
<rect x="224" y="312" style="fill:#2E5166;" width="32" height="32"/>
<g>
	<rect x="440" y="232" style="fill:#FFBE00;" width="40" height="16"/>
	
		<rect x="435.038" y="179.994" transform="matrix(-0.7071 0.7071 -0.7071 -0.7071 904.5622 1.307)" style="fill:#FFBE00;" width="33.944" height="16"/>
	
		<rect x="444.006" y="275.035" transform="matrix(-0.7071 0.7071 -0.7071 -0.7071 978.1023 178.8705)" style="fill:#FFBE00;" width="16" height="33.944"/>
</g>
<path style="fill:#FFB398;" d="M328,432v-48c0-8.837-7.164-16-16-16h-40v-24h-56l-24,24h-32v64H328z"/>
<path style="fill:#FE946F;" d="M160,432v40h152c8.836,0,16-7.164,16-16v-24H160z"/>
<rect x="80" y="368" style="fill:#3F708D;" width="80" height="64"/>
<rect x="80" y="432" style="fill:#2E5166;" width="80" height="40"/>
<g>
</g>
<g>
</g>
<g>
</g>
<g>
</g>
<g>
</g>
<g>
</g>
<g>
</g>
<g>
</g>
<g>
</g>
<g>
</g>
<g>
</g>
<g>
</g>
<g>
</g>
<g>
</g>
<g>
</g>
</svg>
